<?xml version="1.0" encoding="utf-8"?>
<!-- Generator: Adobe Illustrator 15.1.0, SVG Export Plug-In . SVG Version: 6.00 Build 0)  -->
<!DOCTYPE svg PUBLIC "-//W3C//DTD SVG 1.1//EN" "http://www.w3.org/Graphics/SVG/1.1/DTD/svg11.dtd">
<svg version="1.1" id="Layer_1" xmlns="http://www.w3.org/2000/svg" xmlns:xlink="http://www.w3.org/1999/xlink" x="0px" y="0px"
	 width="150px" height="150px" viewBox="0 0 150 150" enable-background="new 0 0 150 150" xml:space="preserve">
<line fill="none" stroke="#9F509F" stroke-width="0.5" stroke-miterlimit="10" x1="150" y1="0" x2="81.833" y2="68.167"/>
<line fill="none" stroke="#9F509F" stroke-width="0.5" stroke-miterlimit="10" x1="75" y1="0" x2="75" y2="150"/>
<line fill="none" stroke="#9F509F" stroke-width="0.5" stroke-linecap="round" stroke-miterlimit="10" x1="97.35" y1="44.7" x2="102.5" y2="55"/>
<line fill="none" stroke="#A7A9AC" stroke-width="0.5" stroke-linecap="round" stroke-miterlimit="10" stroke-dasharray="2,3" x1="121.75" y1="0" x2="121.75" y2="150"/>
<line fill="none" stroke="#9F509F" stroke-width="0.5" stroke-linecap="round" stroke-miterlimit="10" x1="121.75" y1="0" x2="121.75" y2="7"/>
<g>
	<path d="M149,1v148H1V1H149 M150,0H0v150h150V0L150,0z"/>
</g>
<g>
	<line fill="none" stroke="#000000" stroke-linecap="round" stroke-miterlimit="10" x1="124.833" y1="91" x2="124.833" y2="101.5"/>
	<line fill="none" stroke="#000000" stroke-linecap="round" stroke-miterlimit="10" x1="124.833" y1="96.25" x2="129" y2="96.25"/>
</g>
<g>
	<line fill="none" stroke="#000000" stroke-linecap="round" stroke-miterlimit="10" x1="146.833" y1="91" x2="146.833" y2="101.5"/>
	
		<line fill="none" stroke="#000000" stroke-linecap="round" stroke-miterlimit="10" x1="146.833" y1="96.25" x2="142.917" y2="96.25"/>
</g>
<text transform="matrix(1 0 0 1 129.501 98.8916)" font-family="'MyriadPro-Regular'" font-size="9">1/6</text>
</svg>
