<?xml version="1.0" encoding="utf-8"?>
<!-- Generator: Adobe Illustrator 15.1.0, SVG Export Plug-In . SVG Version: 6.00 Build 0)  -->
<!DOCTYPE svg PUBLIC "-//W3C//DTD SVG 1.1//EN" "http://www.w3.org/Graphics/SVG/1.1/DTD/svg11.dtd">
<svg version="1.1" id="Layer_1" xmlns="http://www.w3.org/2000/svg" xmlns:xlink="http://www.w3.org/1999/xlink" x="0px" y="0px"
	 width="150px" height="150px" viewBox="0 0 150 150" enable-background="new 0 0 150 150" xml:space="preserve">
<line fill="none" stroke="#9F509F" stroke-width="0.5" stroke-miterlimit="10" x1="150" y1="0" x2="81.833" y2="68.167"/>
<line fill="none" stroke="#9F509F" stroke-width="0.5" stroke-miterlimit="10" x1="75" y1="0" x2="75" y2="150"/>
<line fill="none" stroke="#9F509F" stroke-width="0.5" stroke-linecap="round" stroke-miterlimit="10" x1="97.35" y1="44.7" x2="102.5" y2="55"/>
<line fill="none" stroke="#9F509F" stroke-width="0.5" stroke-linecap="round" stroke-miterlimit="10" x1="121.75" y1="0" x2="121.75" y2="7"/>
<line fill="none" stroke="#A7A9AC" stroke-width="0.5" stroke-linecap="round" stroke-miterlimit="10" stroke-dasharray="2,3" x1="121.75" y1="0" x2="150" y2="150"/>
<g>
	<path d="M149,1v148H1V1H149 M150,0H0v150h150V0L150,0z"/>
</g>
<line fill="none" stroke="#9F509F" stroke-width="0.5" stroke-linecap="round" stroke-miterlimit="10" x1="125.444" y1="19.614" x2="127.167" y2="28.761"/>
<g>
	
		<line fill="none" stroke="#000000" stroke-linecap="round" stroke-miterlimit="10" x1="129.188" y1="19.035" x2="129.188" y2="29.535"/>
	
		<line fill="none" stroke="#000000" stroke-linecap="round" stroke-miterlimit="10" x1="129.188" y1="24.285" x2="132.543" y2="24.285"/>
</g>
<g>
	
		<line fill="none" stroke="#000000" stroke-linecap="round" stroke-miterlimit="10" x1="146.875" y1="19.035" x2="146.875" y2="29.535"/>
	
		<line fill="none" stroke="#000000" stroke-linecap="round" stroke-miterlimit="10" x1="146.875" y1="24.285" x2="143.813" y2="24.285"/>
</g>
<text transform="matrix(1 0 0 1 132.543 26.6338)" font-family="'MyriadPro-Regular'" font-size="8">1/7</text>
</svg>
