<?xml version="1.0" encoding="utf-8"?>
<!-- Generator: Adobe Illustrator 15.1.0, SVG Export Plug-In . SVG Version: 6.00 Build 0)  -->
<!DOCTYPE svg PUBLIC "-//W3C//DTD SVG 1.1//EN" "http://www.w3.org/Graphics/SVG/1.1/DTD/svg11.dtd">
<svg version="1.1" id="Layer_1" xmlns="http://www.w3.org/2000/svg" xmlns:xlink="http://www.w3.org/1999/xlink" x="0px" y="0px"
	 width="150px" height="150px" viewBox="0 0 150 150" enable-background="new 0 0 150 150" xml:space="preserve">
<line fill="none" stroke="#00AEEF" stroke-miterlimit="10" x1="108" y1="0" x2="108" y2="150"/>
<line fill="none" stroke="#9F509F" stroke-width="0.5" stroke-miterlimit="10" x1="108.166" y1="0" x2="150" y2="150"/>
<g>
	<g>
		<line fill="none" stroke="#000000" stroke-linecap="round" stroke-miterlimit="10" x1="117.25" y1="0" x2="117.25" y2="1"/>
		
			<line fill="none" stroke="#000000" stroke-linecap="round" stroke-miterlimit="10" stroke-dasharray="2,3" x1="117.25" y1="4" x2="117.25" y2="147.5"/>
		<line fill="none" stroke="#000000" stroke-linecap="round" stroke-miterlimit="10" x1="117.25" y1="149" x2="117.25" y2="150"/>
	</g>
</g>
<g>
	<line fill="none" stroke="#000000" stroke-linecap="round" stroke-miterlimit="10" x1="120" y1="132.689" x2="120" y2="143.189"/>
	
		<line fill="none" stroke="#000000" stroke-linecap="round" stroke-miterlimit="10" x1="120" y1="137.939" x2="122.875" y2="137.939"/>
</g>
<g>
	
		<line fill="none" stroke="#000000" stroke-linecap="round" stroke-miterlimit="10" x1="146.367" y1="132.689" x2="146.367" y2="143.189"/>
	
		<line fill="none" stroke="#000000" stroke-linecap="round" stroke-miterlimit="10" x1="146.367" y1="137.939" x2="144.52" y2="137.939"/>
</g>
<text transform="matrix(1 0 0 1 124 145.1895)" font-family="'MyriadPro-Regular'" font-size="9">(n+1)</text>
<line fill="none" stroke="#9F509F" stroke-width="0.5" stroke-miterlimit="10" x1="0" y1="150" x2="150" y2="0"/>
<g>
	<path d="M149,1v148H1V1H149 M150,0H0v150h150V0L150,0z"/>
</g>
<line fill="none" stroke="#000000" stroke-width="0.7" stroke-miterlimit="10" x1="125.25" y1="137.939" x2="142.375" y2="137.939"/>
<text transform="matrix(1 0 0 1 131.5 136.125)" font-family="'MyriadPro-Regular'" font-size="9">1</text>
<g>
	
		<line fill="none" stroke="#000000" stroke-linecap="round" stroke-miterlimit="10" x1="3.333" y1="132.689" x2="3.333" y2="143.189"/>
	<line fill="none" stroke="#000000" stroke-linecap="round" stroke-miterlimit="10" x1="3.333" y1="137.939" x2="43" y2="137.939"/>
</g>
<g>
	
		<line fill="none" stroke="#000000" stroke-linecap="round" stroke-miterlimit="10" x1="114.167" y1="132.689" x2="114.167" y2="143.189"/>
	
		<line fill="none" stroke="#000000" stroke-linecap="round" stroke-miterlimit="10" x1="114.167" y1="137.939" x2="67.25" y2="137.939"/>
</g>
<text transform="matrix(1 0 0 1 45.7158 145.1895)" font-family="'MyriadPro-Regular'" font-size="9">(n+1)</text>
<line fill="none" stroke="#000000" stroke-width="0.7" stroke-miterlimit="10" x1="46.966" y1="137.939" x2="64.091" y2="137.939"/>
<text transform="matrix(1 0 0 1 53.2158 136.125)" font-family="'MyriadPro-Regular'" font-size="9">n</text>
</svg>
