<?xml version="1.0" encoding="utf-8"?>
<!-- Generator: Adobe Illustrator 15.1.0, SVG Export Plug-In . SVG Version: 6.00 Build 0)  -->
<!DOCTYPE svg PUBLIC "-//W3C//DTD SVG 1.1//EN" "http://www.w3.org/Graphics/SVG/1.1/DTD/svg11.dtd">
<svg version="1.1" xmlns="http://www.w3.org/2000/svg" xmlns:xlink="http://www.w3.org/1999/xlink" x="0px" y="0px" width="200px"
	 height="200px" viewBox="0 0 200 200" enable-background="new 0 0 200 200" xml:space="preserve">
<g id="Layer_5">
	
		<line fill="none" stroke="#00AEEF" stroke-width="0.5" stroke-linecap="round" stroke-miterlimit="10" x1="100" y1="3.667" x2="100" y2="196.333"/>
	
		<line fill="none" stroke="#00AEEF" stroke-width="0.5" stroke-linecap="round" stroke-miterlimit="10" x1="25" y1="3.667" x2="25" y2="196.333"/>
	
		<line fill="none" stroke="#00AEEF" stroke-width="0.5" stroke-linecap="round" stroke-miterlimit="10" x1="4.333" y1="25" x2="195" y2="25"/>
	
		<line fill="none" stroke="#00AEEF" stroke-width="0.5" stroke-linecap="round" stroke-miterlimit="10" x1="4.333" y1="100" x2="195" y2="100"/>
	
		<line fill="none" stroke="#00AEEF" stroke-width="0.5" stroke-linecap="round" stroke-miterlimit="10" x1="61.667" y1="3.667" x2="61.667" y2="196.333"/>
	
		<line fill="none" stroke="#00AEEF" stroke-width="0.5" stroke-linecap="round" stroke-miterlimit="10" x1="137.5" y1="3.667" x2="137.5" y2="196.333"/>
	
		<line fill="none" stroke="#00AEEF" stroke-width="0.5" stroke-linecap="round" stroke-miterlimit="10" x1="4.333" y1="138.667" x2="195" y2="138.667"/>
	
		<line fill="none" stroke="#00AEEF" stroke-width="0.5" stroke-linecap="round" stroke-miterlimit="10" x1="4.333" y1="62.667" x2="195" y2="62.667"/>
	<g>
		<g>
			
				<line fill="none" stroke="#21409A" stroke-width="2" stroke-linecap="round" stroke-miterlimit="10" x1="8.702" y1="175" x2="200" y2="175"/>
			<g>
				<path fill="#21409A" d="M2.667,175c2.84,1.054,6.363,2.852,8.547,4.756L9.494,175l1.72-4.755
					C9.03,172.149,5.507,173.947,2.667,175z"/>
			</g>
		</g>
	</g>
	<g>
		<g>
			
				<line fill="none" stroke="#21409A" stroke-width="2" stroke-linecap="round" stroke-miterlimit="10" x1="175" y1="8.035" x2="175" y2="200"/>
			<g>
				<path fill="#21409A" d="M175,2c-1.054,2.84-2.852,6.363-4.756,8.547L175,8.827l4.755,1.72C177.851,8.363,176.053,4.84,175,2z"/>
			</g>
		</g>
	</g>
	<g>
		<path fill="#21409A" d="M164.668,6.601l-0.188-0.275l0.434-0.293c0.422-0.289,0.719-0.475,0.891-0.557
			c0.098-0.047,0.188-0.07,0.27-0.07s0.16,0.047,0.234,0.141c0.344,0.433,0.633,1.018,0.867,1.753s0.352,1.449,0.352,2.14
			c0,0.09-0.004,0.227-0.012,0.41c0.66-1.215,0.99-2.181,0.99-2.896c0-0.148-0.033-0.346-0.1-0.592
			c-0.07-0.273-0.105-0.469-0.105-0.586c0-0.113,0.037-0.207,0.109-0.281s0.162-0.111,0.271-0.111c0.137,0,0.248,0.053,0.332,0.158
			s0.125,0.256,0.125,0.451c0,0.504-0.115,1.132-0.346,1.884s-0.592,1.561-1.086,2.426s-0.945,1.508-1.354,1.928
			s-0.803,0.721-1.184,0.902s-0.742,0.272-1.082,0.272c-0.258,0-0.451-0.048-0.582-0.144s-0.197-0.21-0.197-0.343
			c0-0.117,0.051-0.218,0.152-0.302s0.238-0.126,0.41-0.126c0.133,0,0.314,0.025,0.545,0.076c0.246,0.055,0.414,0.082,0.504,0.082
			c0.238,0,0.49-0.1,0.756-0.298c0.363-0.273,0.652-0.599,0.865-0.978c0.213-0.378,0.318-0.761,0.318-1.147
			c0-0.542-0.078-1.194-0.236-1.955c-0.158-0.761-0.383-1.342-0.672-1.745c-0.145-0.207-0.299-0.31-0.463-0.31
			C165.297,6.214,165.023,6.343,164.668,6.601z"/>
	</g>
	<g>
		<path fill="#21409A" d="M7.238,183.59l-0.17-0.234c0.414-0.352,0.775-0.609,1.084-0.773c0.207-0.113,0.361-0.17,0.463-0.17
			c0.148,0,0.268,0.074,0.357,0.223c0.129,0.211,0.256,0.672,0.381,1.383c0.484-0.711,0.912-1.201,1.283-1.471
			s0.682-0.404,0.932-0.404c0.129,0,0.232,0.037,0.311,0.111c0.078,0.075,0.117,0.168,0.117,0.277c0,0.123-0.055,0.223-0.164,0.301
			c-0.078,0.056-0.291,0.096-0.639,0.119c-0.285,0.016-0.535,0.11-0.75,0.285c-0.344,0.285-0.676,0.699-0.996,1.244l0.375,1.752
			c0.16,0.77,0.328,1.34,0.504,1.711s0.391,0.656,0.645,0.855c0.145,0.113,0.305,0.17,0.48,0.17c0.25,0,0.432-0.152,0.545-0.457
			c0.074-0.199,0.193-0.299,0.357-0.299c0.078,0,0.146,0.031,0.205,0.096s0.088,0.146,0.088,0.244c0,0.191-0.108,0.367-0.325,0.527
			s-0.495,0.24-0.835,0.24c-0.375,0-0.733-0.119-1.075-0.355s-0.637-0.615-0.885-1.137s-0.478-1.35-0.688-2.486
			c-0.078,0.105-0.203,0.281-0.375,0.527c-0.492,0.695-0.873,1.143-1.143,1.342s-0.527,0.299-0.773,0.299
			c-0.172,0-0.314-0.049-0.428-0.145s-0.17-0.209-0.17-0.342c0-0.109,0.037-0.205,0.111-0.285s0.16-0.119,0.258-0.119
			c0.102,0,0.205,0.066,0.311,0.199c0.09,0.117,0.176,0.176,0.258,0.176c0.055,0,0.115-0.018,0.182-0.053
			c0.098-0.055,0.229-0.172,0.393-0.352c0.234-0.254,0.414-0.473,0.539-0.656l0.727-1.072l-0.24-1.096
			c-0.063-0.297-0.126-0.488-0.19-0.572s-0.136-0.125-0.214-0.125c-0.059,0-0.141,0.031-0.246,0.094
			C7.609,183.291,7.41,183.434,7.238,183.59z"/>
	</g>
	<g>
		<path fill="#21409A" d="M28.472,184.639h2.718l-0.141,0.58h-2.73L28.472,184.639z"/>
		<path fill="#21409A" d="M35.708,180.25h0.191l-0.811,3.164l-0.675,2.936c-0.066,0.246-0.1,0.412-0.1,0.498
			c0,0.066,0.033,0.119,0.1,0.16s0.217,0.074,0.451,0.098c0.176,0.016,0.348,0.039,0.516,0.07l-0.117,0.293
			c-0.84-0.09-1.426-0.135-1.758-0.135c-0.484,0-1.01,0.045-1.576,0.135l0.1-0.293c0.203-0.055,0.436-0.109,0.697-0.164
			c0.258-0.051,0.434-0.129,0.527-0.234c0.129-0.137,0.264-0.465,0.404-0.984l0.633-2.42c0.207-0.922,0.311-1.443,0.311-1.564
			c0-0.137-0.057-0.205-0.17-0.205c-0.086,0-0.479,0.156-1.178,0.469l-0.117-0.293c1.016-0.484,1.637-0.807,1.863-0.965
			S35.461,180.469,35.708,180.25z"/>
	</g>
	<g>
		<path fill="#21409A" d="M101.138,184.639h2.718l-0.141,0.58h-2.73L101.138,184.639z"/>
		<path fill="#21409A" d="M107.477,180.309c0.559,0,1.008,0.205,1.346,0.615s0.506,1.024,0.506,1.842c0,1.16-0.291,2.24-0.875,3.24
			c-0.584,0.998-1.293,1.498-2.125,1.498c-0.488,0-0.9-0.213-1.238-0.64s-0.508-1.007-0.508-1.741c0-0.864,0.168-1.71,0.504-2.537
			c0.336-0.826,0.715-1.412,1.137-1.759S107.063,180.309,107.477,180.309z M107.371,180.654c-0.242,0-0.488,0.16-0.74,0.483
			s-0.484,0.913-0.697,1.771c-0.213,0.859-0.32,1.677-0.32,2.455c0,0.625,0.092,1.081,0.273,1.366
			c0.182,0.286,0.389,0.429,0.623,0.429c0.207,0,0.412-0.104,0.615-0.312c0.301-0.309,0.572-0.89,0.814-1.745
			c0.242-0.854,0.363-1.713,0.363-2.577c0-0.669-0.102-1.169-0.305-1.501C107.846,180.777,107.637,180.654,107.371,180.654z"/>
		<path fill="#21409A" d="M110.148,186.063c0.152,0,0.281,0.057,0.385,0.172s0.154,0.262,0.154,0.438
			c0,0.254-0.061,0.453-0.182,0.598s-0.273,0.217-0.457,0.217c-0.152,0-0.279-0.055-0.383-0.162s-0.156-0.244-0.156-0.412
			c0-0.246,0.072-0.461,0.217-0.645C109.832,186.131,109.973,186.063,110.148,186.063z"/>
		<path fill="#21409A" d="M117.25,180.156h0.322l-0.416,0.867c-0.039,0.059-0.1,0.104-0.184,0.137s-0.268,0.051-0.549,0.051
			c-0.836,0-1.402,0.021-1.699,0.064c-0.066,0.168-0.117,0.309-0.152,0.422s-0.053,0.199-0.053,0.258
			c0,0.148,0.115,0.271,0.346,0.369c0.414,0.172,0.707,0.338,0.879,0.498s0.309,0.363,0.41,0.609s0.152,0.531,0.152,0.855
			c0,0.832-0.328,1.572-0.984,2.223s-1.387,0.977-2.191,0.977c-0.375,0-0.662-0.061-0.861-0.182
			c-0.141-0.09-0.211-0.213-0.211-0.369c0-0.102,0.031-0.186,0.094-0.252s0.137-0.1,0.223-0.1c0.055,0,0.098,0.006,0.129,0.018
			s0.109,0.059,0.234,0.141c0.16,0.109,0.291,0.18,0.391,0.211S113.35,187,113.494,187c0.539,0,1.023-0.227,1.451-0.68
			s0.641-0.957,0.641-1.512c0-0.371-0.105-0.705-0.316-1.002s-0.514-0.525-0.908-0.686c-0.164-0.07-0.273-0.139-0.328-0.205
			s-0.082-0.15-0.082-0.252c0-0.113,0.064-0.371,0.193-0.773l0.398-1.242c0.148-0.074,0.35-0.121,0.604-0.141l1.254-0.023
			c0.285-0.012,0.477-0.041,0.574-0.086S117.164,180.273,117.25,180.156z"/>
	</g>
	<g>
		<path fill="#21409A" d="M184.453,178.641c0.559,0,1.006,0.205,1.344,0.616s0.508,1.024,0.508,1.841
			c0,1.162-0.293,2.242-0.877,3.24c-0.584,0.999-1.291,1.498-2.123,1.498c-0.488,0-0.902-0.213-1.24-0.639s-0.506-1.007-0.506-1.742
			c0-0.863,0.168-1.709,0.504-2.535c0.336-0.828,0.715-1.414,1.137-1.76S184.039,178.641,184.453,178.641z M184.348,178.986
			c-0.242,0-0.49,0.162-0.742,0.484s-0.484,0.913-0.697,1.771c-0.213,0.857-0.318,1.676-0.318,2.454c0,0.626,0.09,1.081,0.271,1.366
			s0.391,0.428,0.625,0.428c0.207,0,0.412-0.104,0.615-0.311c0.301-0.309,0.572-0.891,0.814-1.744
			c0.242-0.854,0.363-1.714,0.363-2.578c0-0.668-0.102-1.169-0.305-1.501C184.822,179.109,184.613,178.986,184.348,178.986z"/>
	</g>
	<g>
		<path fill="#21409A" d="M182.119,102.641c0.559,0,1.008,0.205,1.346,0.616s0.506,1.024,0.506,1.841
			c0,1.162-0.291,2.242-0.875,3.24c-0.584,0.999-1.293,1.498-2.125,1.498c-0.488,0-0.9-0.213-1.238-0.639s-0.508-1.007-0.508-1.742
			c0-0.863,0.168-1.709,0.504-2.535c0.336-0.828,0.715-1.414,1.137-1.76S181.705,102.641,182.119,102.641z M182.014,102.986
			c-0.242,0-0.488,0.162-0.74,0.484s-0.484,0.913-0.697,1.771c-0.213,0.857-0.32,1.676-0.32,2.454c0,0.626,0.092,1.081,0.273,1.366
			s0.389,0.428,0.623,0.428c0.207,0,0.412-0.104,0.615-0.311c0.301-0.309,0.572-0.891,0.814-1.744
			c0.242-0.854,0.363-1.714,0.363-2.578c0-0.668-0.102-1.169-0.305-1.501C182.488,103.109,182.279,102.986,182.014,102.986z"/>
		<path fill="#21409A" d="M184.791,108.395c0.152,0,0.281,0.059,0.385,0.174s0.154,0.26,0.154,0.436
			c0,0.254-0.061,0.453-0.182,0.598s-0.273,0.217-0.457,0.217c-0.152,0-0.279-0.053-0.383-0.16s-0.156-0.246-0.156-0.414
			c0-0.246,0.072-0.461,0.217-0.645C184.475,108.463,184.615,108.395,184.791,108.395z"/>
		<path fill="#21409A" d="M191.893,102.488h0.322l-0.416,0.867c-0.039,0.059-0.1,0.105-0.184,0.139s-0.268,0.049-0.549,0.049
			c-0.836,0-1.402,0.021-1.699,0.064c-0.066,0.168-0.117,0.309-0.152,0.422s-0.053,0.199-0.053,0.258
			c0,0.148,0.115,0.271,0.346,0.369c0.414,0.172,0.707,0.338,0.879,0.498s0.309,0.363,0.41,0.609s0.152,0.531,0.152,0.855
			c0,0.832-0.328,1.574-0.984,2.225s-1.387,0.975-2.191,0.975c-0.375,0-0.662-0.061-0.861-0.182
			c-0.141-0.09-0.211-0.213-0.211-0.369c0-0.102,0.031-0.186,0.094-0.252s0.137-0.1,0.223-0.1c0.055,0,0.098,0.006,0.129,0.018
			s0.109,0.059,0.234,0.141c0.16,0.109,0.291,0.18,0.391,0.211s0.221,0.047,0.365,0.047c0.539,0,1.023-0.227,1.451-0.68
			s0.641-0.957,0.641-1.512c0-0.371-0.105-0.705-0.316-1.002s-0.514-0.525-0.908-0.686c-0.164-0.07-0.273-0.139-0.328-0.205
			s-0.082-0.15-0.082-0.252c0-0.113,0.064-0.371,0.193-0.773l0.398-1.242c0.148-0.074,0.35-0.121,0.604-0.141l1.254-0.023
			c0.285-0.012,0.477-0.039,0.574-0.084S191.807,102.605,191.893,102.488z"/>
	</g>
	<g>
		<path fill="#21409A" d="M183.016,27.25h0.191l-0.811,3.164l-0.676,2.936c-0.066,0.246-0.1,0.412-0.1,0.498
			c0,0.066,0.033,0.12,0.1,0.161s0.217,0.073,0.451,0.097c0.176,0.016,0.348,0.039,0.516,0.07l-0.117,0.293
			c-0.84-0.09-1.426-0.135-1.758-0.135c-0.484,0-1.01,0.045-1.576,0.135l0.1-0.293c0.203-0.055,0.436-0.109,0.697-0.164
			c0.258-0.051,0.434-0.129,0.527-0.234c0.129-0.137,0.264-0.465,0.404-0.984l0.633-2.42c0.207-0.922,0.311-1.443,0.311-1.564
			c0-0.137-0.057-0.205-0.17-0.205c-0.086,0-0.479,0.156-1.178,0.469l-0.117-0.293c1.016-0.484,1.637-0.806,1.863-0.964
			S182.77,27.468,183.016,27.25z"/>
	</g>
</g>
<g id="Layer_1">
	<rect x="25" y="25" fill="none" stroke="#000000" stroke-miterlimit="10" width="150" height="150"/>
	<g>
		<g>
			<line fill="none" stroke="#009444" stroke-miterlimit="10" x1="17" y1="183" x2="186.732" y2="13.268"/>
			<g>
				<path fill="#009444" d="M191,9c-1.263,2.753-2.483,6.516-2.681,9.407l-2.146-4.579l-4.579-2.146
					C184.484,11.484,188.247,10.264,191,9z"/>
			</g>
		</g>
	</g>
	<g>
		<path fill="#F7941E" d="M117.668,130.602l-0.188-0.275l0.434-0.293c0.422-0.289,0.719-0.475,0.891-0.557
			c0.098-0.047,0.188-0.07,0.27-0.07s0.16,0.047,0.234,0.141c0.344,0.434,0.633,1.018,0.867,1.754s0.352,1.449,0.352,2.141
			c0,0.09-0.004,0.227-0.012,0.409c0.66-1.216,0.99-2.181,0.99-2.896c0-0.148-0.033-0.346-0.1-0.593
			c-0.07-0.273-0.105-0.469-0.105-0.587c0-0.113,0.035-0.207,0.107-0.281s0.164-0.111,0.273-0.111c0.137,0,0.246,0.053,0.33,0.158
			s0.127,0.256,0.127,0.451c0,0.504-0.115,1.133-0.346,1.885s-0.594,1.561-1.088,2.426s-0.945,1.508-1.354,1.928
			s-0.803,0.721-1.184,0.902s-0.74,0.271-1.08,0.271c-0.258,0-0.453-0.047-0.584-0.143s-0.195-0.211-0.195-0.344
			c0-0.117,0.051-0.217,0.152-0.301s0.238-0.127,0.41-0.127c0.133,0,0.314,0.025,0.545,0.076c0.246,0.055,0.414,0.082,0.504,0.082
			c0.238,0,0.49-0.1,0.756-0.298c0.363-0.273,0.65-0.599,0.863-0.978s0.32-0.762,0.32-1.148c0-0.541-0.08-1.193-0.238-1.955
			c-0.158-0.76-0.381-1.342-0.67-1.744c-0.145-0.207-0.299-0.311-0.463-0.311C118.297,130.215,118.023,130.344,117.668,130.602z"/>
		<path fill="#F7941E" d="M130.893,129.559v0.662h-5.186v-0.662H130.893z M130.893,131.563v0.662h-5.186v-0.662H130.893z"/>
		<path fill="#F7941E" d="M134.115,131.639h2.719l-0.142,0.58h-2.729L134.115,131.639z"/>
		<path fill="#F7941E" d="M138.697,129.072l-0.299-0.146c0.309-0.613,0.627-1.037,0.957-1.273s0.701-0.355,1.111-0.355
			c0.492,0,0.885,0.156,1.178,0.469s0.439,0.678,0.439,1.096c0,0.258-0.053,0.52-0.158,0.785s-0.279,0.543-0.521,0.832
			c-0.156,0.191-0.586,0.588-1.289,1.188c-0.945,0.821-1.609,1.483-1.992,1.987c0.512-0.023,1.039-0.035,1.582-0.035
			c0.176,0,0.328,0.002,0.457,0.006c0.285,0.012,0.48-0.016,0.586-0.082s0.279-0.289,0.521-0.668h0.404
			c-0.316,0.438-0.592,0.975-0.826,1.611c-0.277-0.051-0.57-0.088-0.879-0.113s-0.633-0.039-0.973-0.039
			c-0.402,0-0.994,0.025-1.775,0.076l0.117-0.369c0.355-0.527,0.887-1.123,1.594-1.788c0.699-0.657,1.15-1.116,1.354-1.378
			c0.293-0.379,0.506-0.737,0.639-1.074c0.102-0.25,0.152-0.492,0.152-0.727c0-0.352-0.096-0.634-0.287-0.845
			c-0.191-0.212-0.428-0.317-0.709-0.317c-0.234,0-0.465,0.085-0.689,0.254C139.166,128.334,138.936,128.637,138.697,129.072z"/>
		<path fill="#F7941E" d="M143.186,130.59l-0.17-0.234c0.414-0.352,0.775-0.609,1.084-0.773c0.207-0.113,0.361-0.17,0.463-0.17
			c0.148,0,0.268,0.074,0.357,0.223c0.129,0.211,0.256,0.672,0.381,1.383c0.484-0.711,0.912-1.201,1.283-1.471
			s0.682-0.404,0.932-0.404c0.129,0,0.232,0.038,0.311,0.113c0.078,0.074,0.117,0.166,0.117,0.277c0,0.121-0.055,0.222-0.164,0.301
			c-0.078,0.055-0.291,0.094-0.639,0.117c-0.285,0.016-0.535,0.111-0.75,0.287c-0.344,0.283-0.676,0.697-0.996,1.242l0.375,1.752
			c0.16,0.77,0.328,1.34,0.504,1.711s0.391,0.656,0.645,0.855c0.145,0.113,0.305,0.17,0.48,0.17c0.25,0,0.432-0.152,0.545-0.457
			c0.074-0.199,0.193-0.299,0.357-0.299c0.078,0,0.146,0.033,0.205,0.098s0.088,0.145,0.088,0.242c0,0.191-0.109,0.367-0.326,0.527
			s-0.494,0.24-0.834,0.24c-0.375,0-0.734-0.117-1.076-0.354s-0.637-0.615-0.885-1.137s-0.477-1.352-0.688-2.488
			c-0.078,0.105-0.203,0.281-0.375,0.527c-0.492,0.695-0.873,1.143-1.143,1.342s-0.527,0.299-0.773,0.299
			c-0.172,0-0.314-0.047-0.428-0.143s-0.17-0.211-0.17-0.344c0-0.109,0.037-0.203,0.111-0.283s0.16-0.121,0.258-0.121
			c0.102,0,0.205,0.066,0.311,0.199c0.09,0.117,0.176,0.176,0.258,0.176c0.055,0,0.115-0.018,0.182-0.053
			c0.098-0.055,0.229-0.172,0.393-0.352c0.234-0.254,0.414-0.473,0.539-0.656l0.727-1.072l-0.24-1.096
			c-0.063-0.297-0.127-0.486-0.191-0.57s-0.135-0.127-0.213-0.127c-0.059,0-0.141,0.031-0.246,0.094
			C143.557,130.291,143.357,130.434,143.186,130.59z"/>
	</g>
	<g>
		<g>
			<line fill="none" stroke="#F7941E" stroke-miterlimit="10" x1="89.333" y1="3.667" x2="180.434" y2="185.868"/>
			<g>
				<path fill="#F7941E" d="M183.133,191.267c-2.213-2.068-5.396-4.416-8.076-5.519l5.023-0.588l3.483-3.665
					C182.837,184.301,182.805,188.256,183.133,191.267z"/>
			</g>
		</g>
	</g>
	<g>
		<path fill="#009444" d="M72.668,86.602l-0.188-0.275l0.434-0.293c0.422-0.289,0.719-0.475,0.891-0.557
			c0.098-0.047,0.188-0.07,0.27-0.07s0.16,0.047,0.234,0.141c0.344,0.433,0.633,1.018,0.867,1.753s0.352,1.449,0.352,2.14
			c0,0.09-0.004,0.227-0.012,0.41c0.66-1.215,0.99-2.181,0.99-2.896c0-0.148-0.033-0.346-0.1-0.592
			c-0.07-0.273-0.105-0.469-0.105-0.586c0-0.113,0.036-0.207,0.108-0.281s0.163-0.111,0.272-0.111c0.137,0,0.247,0.053,0.331,0.158
			s0.126,0.256,0.126,0.451c0,0.504-0.115,1.132-0.346,1.884s-0.593,1.561-1.087,2.426s-0.945,1.508-1.354,1.928
			s-0.803,0.721-1.184,0.902s-0.741,0.272-1.081,0.272c-0.258,0-0.452-0.048-0.583-0.144s-0.196-0.21-0.196-0.343
			c0-0.117,0.051-0.218,0.152-0.302s0.238-0.126,0.41-0.126c0.133,0,0.314,0.025,0.545,0.076c0.246,0.055,0.414,0.082,0.504,0.082
			c0.238,0,0.49-0.1,0.756-0.298c0.363-0.273,0.651-0.599,0.864-0.978c0.213-0.378,0.319-0.761,0.319-1.147
			c0-0.542-0.079-1.194-0.237-1.955c-0.158-0.761-0.382-1.342-0.671-1.745c-0.145-0.207-0.299-0.31-0.463-0.31
			C73.297,86.215,73.024,86.344,72.668,86.602z"/>
		<path fill="#009444" d="M85.893,85.559v0.662h-5.186v-0.662H85.893z M85.893,87.563v0.662h-5.186v-0.662H85.893z"/>
		<path fill="#009444" d="M89.549,86.59l-0.17-0.234c0.414-0.352,0.775-0.609,1.084-0.773c0.207-0.113,0.361-0.17,0.463-0.17
			c0.148,0,0.268,0.074,0.357,0.223c0.129,0.211,0.256,0.672,0.381,1.383c0.484-0.711,0.912-1.201,1.283-1.471
			s0.682-0.404,0.932-0.404c0.129,0,0.232,0.038,0.311,0.112s0.117,0.167,0.117,0.277c0,0.122-0.055,0.222-0.164,0.301
			c-0.078,0.055-0.291,0.095-0.639,0.118c-0.285,0.016-0.535,0.111-0.75,0.286c-0.344,0.284-0.676,0.698-0.996,1.243l0.375,1.752
			c0.16,0.77,0.328,1.34,0.504,1.711s0.391,0.656,0.645,0.855c0.145,0.113,0.305,0.17,0.48,0.17c0.25,0,0.432-0.152,0.545-0.457
			c0.074-0.199,0.193-0.299,0.357-0.299c0.078,0,0.146,0.032,0.205,0.097s0.088,0.146,0.088,0.243c0,0.191-0.108,0.367-0.325,0.527
			s-0.495,0.24-0.835,0.24c-0.375,0-0.733-0.118-1.075-0.354s-0.637-0.615-0.885-1.137s-0.478-1.351-0.688-2.487
			c-0.078,0.105-0.203,0.281-0.375,0.527c-0.492,0.695-0.873,1.143-1.143,1.342s-0.527,0.299-0.773,0.299
			c-0.172,0-0.314-0.048-0.428-0.144s-0.17-0.21-0.17-0.343c0-0.109,0.037-0.204,0.111-0.284s0.16-0.12,0.258-0.12
			c0.102,0,0.205,0.066,0.311,0.199c0.09,0.117,0.176,0.176,0.258,0.176c0.055,0,0.115-0.018,0.182-0.053
			c0.098-0.055,0.229-0.172,0.393-0.352c0.234-0.254,0.414-0.473,0.539-0.656l0.727-1.072l-0.24-1.096
			c-0.063-0.297-0.126-0.487-0.19-0.571s-0.136-0.126-0.214-0.126c-0.059,0-0.141,0.031-0.246,0.094
			C89.92,86.291,89.721,86.434,89.549,86.59z"/>
		<path fill="#009444" d="M96.891,86.566v-2.256h0.65v2.256h2.268v0.65h-2.268v2.291h-0.65v-2.291h-2.268v-0.65H96.891z"/>
		<path fill="#009444" d="M104.273,83.25h0.191l-0.811,3.164l-0.676,2.936c-0.066,0.246-0.1,0.412-0.1,0.498
			c0,0.066,0.033,0.12,0.1,0.161s0.217,0.073,0.451,0.097c0.176,0.016,0.348,0.039,0.516,0.07l-0.117,0.293
			c-0.84-0.09-1.426-0.135-1.758-0.135c-0.484,0-1.01,0.045-1.576,0.135l0.1-0.293c0.203-0.055,0.435-0.109,0.697-0.164
			c0.258-0.051,0.434-0.129,0.527-0.234c0.129-0.137,0.264-0.465,0.404-0.984l0.633-2.42c0.207-0.922,0.311-1.443,0.311-1.564
			c0-0.137-0.057-0.205-0.17-0.205c-0.086,0-0.479,0.156-1.178,0.469l-0.117-0.293c1.016-0.484,1.637-0.806,1.863-0.964
			S104.027,83.469,104.273,83.25z"/>
	</g>
</g>
<g id="Layer_2">
</g>
<g id="Layer_3">
</g>
<g id="Layer_4">
</g>
</svg>
